<svg version="1.1" id="Layer_1" xmlns="http://www.w3.org/2000/svg" xmlns:xlink="http://www.w3.org/1999/xlink" x="0px" y="0px"
	 viewBox="0 0 300 300" enable-background="new 0 0 300 300" xml:space="preserve">
<path fill="#D6D2D1" d="M285,150L285,150c0-74.6-60.4-135-135-135C75.4,15,15,75.4,15,150v0v0v0c0,37.3,15.1,71,39.5,95.4
	c0,0,0,0,0,0c0,0,0,0,0,0C79,269.9,112.7,285,150,285l0,0h0h0C224.6,285,285,224.6,285,150L285,150L285,150z M260.4,156.2h12.1
	c-1.5,29.2-13.1,55.7-31.5,76l-2-2c-2.4-2.4-6.4-2.4-8.8,0c-2.4,2.4-2.4,6.4,0,8.8l2,2c-20.3,18.4-46.8,30.1-76,31.5v-12.1
	c0-3.4-2.8-6.2-6.2-6.2c-3.4,0-6.2,2.8-6.2,6.2v12.1c-29.2-1.5-55.7-13.2-76-31.5l2-2c2.4-2.4,2.4-6.4,0-8.8c-2.4-2.4-6.4-2.4-8.8,0
	l-2,2c-18.4-20.3-30.1-46.8-31.5-76h12.1c3.4,0,6.2-2.8,6.2-6.2c0-3.4-2.8-6.2-6.2-6.2H27.5c1.5-29.2,13.1-55.7,31.5-76l2,2
	c2.4,2.4,6.4,2.4,8.8,0c2.4-2.4,2.4-6.4,0-8.8l-2-2c20.3-18.4,46.8-30.1,76-31.5v12.1c0,3.4,2.8,6.2,6.2,6.2c3.4,0,6.2-2.8,6.2-6.2
	V27.5c29.2,1.5,55.7,13.1,76,31.5l-2,2c-2.4,2.4-2.4,6.4,0,8.8c2.4,2.4,6.4,2.4,8.8,0l2-2c18.4,20.3,30.1,46.8,31.5,76h-12.1
	c-3.4,0-6.2,2.8-6.2,6.2C254.2,153.4,257,156.2,260.4,156.2z"/>
</svg>
